<svg xmlns="http://www.w3.org/2000/svg" xmlns:xlink="http://www.w3.org/1999/xlink" contentStyleType="text/css" data-diagram-type="ACTIVITY" height="844px" preserveAspectRatio="none" style="width:896px;height:844px;background:#FFFFFF;" version="1.1" viewBox="0 0 896 844" width="896px" zoomAndPan="magnify"><?plantuml 1.2026.3?><defs/><g><g class="title" data-source-line="2"><text fill="#000000" font-family="Microsoft YaHei" font-size="14" font-weight="700" lengthAdjust="spacing" textLength="98" x="398" y="34.8135">&#35746;&#21333;&#21462;&#28040;&#27963;&#21160;&#22270;</text></g><ellipse cx="346" cy="64.4775" fill="#222222" rx="10" ry="10" style="stroke:#222222;stroke-width:1;"/><rect fill="#FFFFFF" height="43.7568" rx="9" ry="9" style="stroke:#000000;stroke-width:2.2;" width="92" x="300" y="94.4775"/><text fill="#000000" font-family="Microsoft YaHei" font-size="18" lengthAdjust="spacing" textLength="72" x="310" y="123.5234">&#26597;&#30475;&#35746;&#21333;</text><rect fill="#FFFFFF" height="43.7568" rx="9" ry="9" style="stroke:#000000;stroke-width:2.2;" width="218" x="237" y="158.2344"/><text fill="#000000" font-family="Microsoft YaHei" font-size="18" lengthAdjust="spacing" textLength="198" x="247" y="187.2803">&#28857;&#20987;&#21462;&#28040;&#35746;&#21333;&#25110;&#30003;&#35831;&#21462;&#28040;</text><rect fill="#FFFFFF" height="43.7568" rx="9" ry="9" style="stroke:#000000;stroke-width:2.2;" width="128" x="282" y="221.9912"/><text fill="#000000" font-family="Microsoft YaHei" font-size="18" lengthAdjust="spacing" textLength="108" x="292" y="251.0371">&#26816;&#26597;&#35746;&#21333;&#29366;&#24577;</text><polygon fill="#FFFFFF" points="346,290.7158,430,314.5942,346,338.4727,262,314.5942" style="stroke:#000000;stroke-width:2.2;"/><text fill="#000000" font-family="Microsoft YaHei" font-size="18" lengthAdjust="spacing" textLength="144" x="274" y="321.7617">&#26159;&#21542;&#20026;&#24453;&#20184;&#27454;&#35746;&#21333;</text><text fill="#000000" font-family="Microsoft YaHei" font-size="18" lengthAdjust="spacing" textLength="18" x="244" y="298.0049">&#26159;</text><text fill="#000000" font-family="Microsoft YaHei" font-size="18" lengthAdjust="spacing" textLength="18" x="430" y="303.0049">&#21542;</text><rect fill="#FFFFFF" height="43.7568" rx="9" ry="9" style="stroke:#000000;stroke-width:2.2;" width="128" x="52" y="348.4727"/><text fill="#000000" font-family="Microsoft YaHei" font-size="18" lengthAdjust="spacing" textLength="108" x="62" y="377.5186">&#30452;&#25509;&#21462;&#28040;&#35746;&#21333;</text><rect fill="#FFFFFF" height="43.7568" rx="9" ry="9" style="stroke:#000000;stroke-width:2.2;" width="200" x="16" y="427.2295"/><text fill="#000000" font-family="Microsoft YaHei" font-size="18" lengthAdjust="spacing" textLength="180" x="26" y="456.2754">&#26356;&#26032;&#35746;&#21333;&#29366;&#24577;&#20026;&#24050;&#21462;&#28040;</text><ellipse cx="116" cy="516.9863" fill="none" rx="11" ry="11" style="stroke:#222222;stroke-width:1;"/><ellipse cx="116" cy="516.9863" fill="#222222" rx="6" ry="6" style="stroke:#222222;stroke-width:1;"/><polygon fill="#FFFFFF" points="606,348.4727,708,372.3511,606,396.2295,504,372.3511" style="stroke:#000000;stroke-width:2.2;"/><text fill="#000000" font-family="Microsoft YaHei" font-size="18" lengthAdjust="spacing" textLength="180" x="516" y="379.5186">&#26159;&#21542;&#20026;&#24453;&#21457;&#36135;&#19988;&#24050;&#25903;&#20184;</text><text fill="#000000" font-family="Microsoft YaHei" font-size="18" lengthAdjust="spacing" textLength="18" x="486" y="355.7617">&#26159;</text><text fill="#000000" font-family="Microsoft YaHei" font-size="18" lengthAdjust="spacing" textLength="18" x="708" y="360.7617">&#21542;</text><rect fill="#FFFFFF" height="43.7568" rx="9" ry="9" style="stroke:#000000;stroke-width:2.2;" width="128" x="372" y="406.2295"/><text fill="#000000" font-family="Microsoft YaHei" font-size="18" lengthAdjust="spacing" textLength="108" x="382" y="435.2754">&#25552;&#20132;&#21462;&#28040;&#30003;&#35831;</text><rect fill="#FFFFFF" height="43.7568" rx="9" ry="9" style="stroke:#000000;stroke-width:2.2;" width="200" x="336" y="484.9863"/><text fill="#000000" font-family="Microsoft YaHei" font-size="18" lengthAdjust="spacing" textLength="180" x="346" y="514.0322">&#26356;&#26032;&#29366;&#24577;&#20026;&#30003;&#35831;&#21462;&#28040;&#20013;</text><rect fill="#FFFFFF" height="43.7568" rx="9" ry="9" style="stroke:#000000;stroke-width:2.2;" width="182" x="345" y="548.7432"/><text fill="#000000" font-family="Microsoft YaHei" font-size="18" lengthAdjust="spacing" textLength="162" x="355" y="577.7891">&#31649;&#29702;&#21592;&#23457;&#26680;&#21462;&#28040;&#30003;&#35831;</text><polygon fill="#FFFFFF" points="436,617.4678,502,641.3462,436,665.2246,370,641.3462" style="stroke:#000000;stroke-width:2.2;"/><text fill="#000000" font-family="Microsoft YaHei" font-size="18" lengthAdjust="spacing" textLength="108" x="382" y="648.5137">&#23457;&#26680;&#26159;&#21542;&#36890;&#36807;</text><text fill="#000000" font-family="Microsoft YaHei" font-size="18" lengthAdjust="spacing" textLength="36" x="334" y="624.7568">&#36890;&#36807;</text><text fill="#000000" font-family="Microsoft YaHei" font-size="18" lengthAdjust="spacing" textLength="36" x="502" y="629.7568">&#25298;&#32477;</text><rect fill="#FFFFFF" height="43.7568" rx="9" ry="9" style="stroke:#000000;stroke-width:2.2;" width="182" x="235" y="675.2246"/><text fill="#000000" font-family="Microsoft YaHei" font-size="18" lengthAdjust="spacing" textLength="162" x="245" y="704.2705">&#24674;&#22797;&#24211;&#23384;&#24182;&#22238;&#36864;&#38144;&#37327;</text><rect fill="#FFFFFF" height="43.7568" rx="9" ry="9" style="stroke:#000000;stroke-width:2.2;" width="200" x="226" y="738.9814"/><text fill="#000000" font-family="Microsoft YaHei" font-size="18" lengthAdjust="spacing" textLength="180" x="236" y="768.0273">&#26356;&#26032;&#35746;&#21333;&#29366;&#24577;&#20026;&#24050;&#21462;&#28040;</text><ellipse cx="326" cy="813.7383" fill="none" rx="11" ry="11" style="stroke:#222222;stroke-width:1;"/><ellipse cx="326" cy="813.7383" fill="#222222" rx="6" ry="6" style="stroke:#222222;stroke-width:1;"/><rect fill="#FFFFFF" height="43.7568" rx="9" ry="9" style="stroke:#000000;stroke-width:2.2;" width="200" x="446" y="675.2246"/><text fill="#000000" font-family="Microsoft YaHei" font-size="18" lengthAdjust="spacing" textLength="180" x="456" y="704.2705">&#24674;&#22797;&#35746;&#21333;&#29366;&#24577;&#20026;&#24453;&#21457;&#36135;</text><ellipse cx="546" cy="749.9814" fill="none" rx="11" ry="11" style="stroke:#222222;stroke-width:1;"/><ellipse cx="546" cy="749.9814" fill="#222222" rx="6" ry="6" style="stroke:#222222;stroke-width:1;"/><rect fill="#FFFFFF" height="43.7568" rx="9" ry="9" style="stroke:#000000;stroke-width:2.2;" width="200" x="676" y="406.2295"/><text fill="#000000" font-family="Microsoft YaHei" font-size="18" lengthAdjust="spacing" textLength="180" x="686" y="435.2754">&#25552;&#31034;&#24403;&#21069;&#29366;&#24577;&#19981;&#21487;&#21462;&#28040;</text><ellipse cx="776" cy="495.9863" fill="none" rx="11" ry="11" style="stroke:#222222;stroke-width:1;"/><ellipse cx="776" cy="495.9863" fill="#222222" rx="6" ry="6" style="stroke:#222222;stroke-width:1;"/><line style="stroke:#000000;stroke-width:2.2;" x1="346" x2="346" y1="74.4775" y2="94.4775"/><polygon fill="#000000" points="342,84.4775,346,94.4775,350,84.4775,346,88.4775" style="stroke:#000000;stroke-width:1;"/><line style="stroke:#000000;stroke-width:2.2;" x1="346" x2="346" y1="138.2344" y2="158.2344"/><polygon fill="#000000" points="342,148.2344,346,158.2344,350,148.2344,346,152.2344" style="stroke:#000000;stroke-width:1;"/><line style="stroke:#000000;stroke-width:2.2;" x1="346" x2="346" y1="201.9912" y2="221.9912"/><polygon fill="#000000" points="342,211.9912,346,221.9912,350,211.9912,346,215.9912" style="stroke:#000000;stroke-width:1;"/><line style="stroke:#000000;stroke-width:2.2;" x1="116" x2="116" y1="392.2295" y2="427.2295"/><polygon fill="#000000" points="112,417.2295,116,427.2295,120,417.2295,116,421.2295" style="stroke:#000000;stroke-width:1;"/><line style="stroke:#000000;stroke-width:2.2;" x1="116" x2="116" y1="470.9863" y2="505.9863"/><polygon fill="#000000" points="112,495.9863,116,505.9863,120,495.9863,116,499.9863" style="stroke:#000000;stroke-width:1;"/><line style="stroke:#000000;stroke-width:2.2;" x1="436" x2="436" y1="449.9863" y2="484.9863"/><polygon fill="#000000" points="432,474.9863,436,484.9863,440,474.9863,436,478.9863" style="stroke:#000000;stroke-width:1;"/><line style="stroke:#000000;stroke-width:2.2;" x1="436" x2="436" y1="528.7432" y2="548.7432"/><polygon fill="#000000" points="432,538.7432,436,548.7432,440,538.7432,436,542.7432" style="stroke:#000000;stroke-width:1;"/><line style="stroke:#000000;stroke-width:2.2;" x1="326" x2="326" y1="718.9814" y2="738.9814"/><polygon fill="#000000" points="322,728.9814,326,738.9814,330,728.9814,326,732.9814" style="stroke:#000000;stroke-width:1;"/><line style="stroke:#000000;stroke-width:2.2;" x1="326" x2="326" y1="782.7383" y2="802.7383"/><polygon fill="#000000" points="322,792.7383,326,802.7383,330,792.7383,326,796.7383" style="stroke:#000000;stroke-width:1;"/><line style="stroke:#000000;stroke-width:2.2;" x1="546" x2="546" y1="718.9814" y2="738.9814"/><polygon fill="#000000" points="542,728.9814,546,738.9814,550,728.9814,546,732.9814" style="stroke:#000000;stroke-width:1;"/><line style="stroke:#000000;stroke-width:2.2;" x1="370" x2="326" y1="641.3462" y2="641.3462"/><line style="stroke:#000000;stroke-width:2.2;" x1="326" x2="326" y1="641.3462" y2="675.2246"/><polygon fill="#000000" points="322,665.2246,326,675.2246,330,665.2246,326,669.2246" style="stroke:#000000;stroke-width:1;"/><line style="stroke:#000000;stroke-width:2.2;" x1="502" x2="546" y1="641.3462" y2="641.3462"/><line style="stroke:#000000;stroke-width:2.2;" x1="546" x2="546" y1="641.3462" y2="675.2246"/><polygon fill="#000000" points="542,665.2246,546,675.2246,550,665.2246,546,669.2246" style="stroke:#000000;stroke-width:1;"/><line style="stroke:#000000;stroke-width:2.2;" x1="436" x2="436" y1="592.5" y2="617.4678"/><polygon fill="#000000" points="432,607.4678,436,617.4678,440,607.4678,436,611.4678" style="stroke:#000000;stroke-width:1;"/><line style="stroke:#000000;stroke-width:2.2;" x1="776" x2="776" y1="449.9863" y2="484.9863"/><polygon fill="#000000" points="772,474.9863,776,484.9863,780,474.9863,776,478.9863" style="stroke:#000000;stroke-width:1;"/><line style="stroke:#000000;stroke-width:2.2;" x1="504" x2="436" y1="372.3511" y2="372.3511"/><line style="stroke:#000000;stroke-width:2.2;" x1="436" x2="436" y1="372.3511" y2="406.2295"/><polygon fill="#000000" points="432,396.2295,436,406.2295,440,396.2295,436,400.2295" style="stroke:#000000;stroke-width:1;"/><line style="stroke:#000000;stroke-width:2.2;" x1="708" x2="776" y1="372.3511" y2="372.3511"/><line style="stroke:#000000;stroke-width:2.2;" x1="776" x2="776" y1="372.3511" y2="406.2295"/><polygon fill="#000000" points="772,396.2295,776,406.2295,780,396.2295,776,400.2295" style="stroke:#000000;stroke-width:1;"/><line style="stroke:#000000;stroke-width:2.2;" x1="262" x2="116" y1="314.5942" y2="314.5942"/><line style="stroke:#000000;stroke-width:2.2;" x1="116" x2="116" y1="314.5942" y2="348.4727"/><polygon fill="#000000" points="112,338.4727,116,348.4727,120,338.4727,116,342.4727" style="stroke:#000000;stroke-width:1;"/><line style="stroke:#000000;stroke-width:2.2;" x1="430" x2="606" y1="314.5942" y2="314.5942"/><line style="stroke:#000000;stroke-width:2.2;" x1="606" x2="606" y1="314.5942" y2="348.4727"/><polygon fill="#000000" points="602,338.4727,606,348.4727,610,338.4727,606,342.4727" style="stroke:#000000;stroke-width:1;"/><line style="stroke:#000000;stroke-width:2.2;" x1="346" x2="346" y1="265.748" y2="290.7158"/><polygon fill="#000000" points="342,280.7158,346,290.7158,350,280.7158,346,284.7158" style="stroke:#000000;stroke-width:1;"/><?plantuml-src XP3BJi9068NtynJZ3XRu0FHf29JOf5nY1nDsnKH121QaaaQyWQ0kX1ebt1hnPVhFj6zXssa9AGkxQDh_F_ETC-T8AcRbIax4sLAXK2gcCbaYdKcacb98LHQFovM2x2aGaOWiOcSsWlOjQ7swQD2v1Srt66mHKaZcbA0qVPgm-nRN22ZDpjTGjxYO3scZp_HlnrpoeQUXBwftYczPSq7Lce2GbCS9QfZGURLN6zXUs9P1FxPSbCJaH2m6-oJ2ECq6StezsJSH_37rnltFVQwFMdv5nXWhf5H6ego8EE4P-QouBMXTP_vchtJl7DLDBqNCtFVHElPcpAdyQaAu20BihFUlRQ-ceOZDXgnp2Lq3PaFwl3h4-97uZWTprJldjnx52Fy2fMzP6y6u3PiUJ0rOBs3mwAgggwjkNHDscdzxyP-W6_-3zqDRDynwYFd46L5VXunYJigZY1LspQjZumtyzE2g7M7Qe9dxKK88HmJlFm00?></g></svg>